<svg width="40" height="40" viewBox="0 0 40 40" fill="none" xmlns="http://www.w3.org/2000/svg">
<rect width="40" height="40" rx="10" fill="white"/>
<path d="M17.962 27.1825C17.7611 27.1825 17.5602 27.1106 17.4015 26.9567L10.9825 20.7253C10.6758 20.4276 10.6758 19.9348 10.9825 19.6371L17.4015 13.4058C17.7082 13.1081 18.2158 13.1081 18.5225 13.4058C18.8292 13.7035 18.8292 14.1962 18.5225 14.494L12.6639 20.1812L18.5225 25.8685C18.8292 26.1662 18.8292 26.6589 18.5225 26.9567C18.3744 27.1106 18.1629 27.1825 17.962 27.1825Z" fill="#1E293B"/>
<path d="M28.5 21.25H11.67C11.26 21.25 10.92 20.7967 10.92 20.25C10.92 19.7033 11.26 19.25 11.67 19.25H28.5C28.91 19.25 29.25 19.7033 29.25 20.25C29.25 20.7967 28.91 21.25 28.5 21.25Z" fill="#1E293B"/>
</svg>
