<svg width="24" height="24" viewBox="0 0 24 24" fill="none" xmlns="http://www.w3.org/2000/svg">
<path d="M1.6875 1.43878L1.6875 22.5612C1.6875 22.9423 1.99458 23.25 2.375 23.25H3.75C4.13042 23.25 4.4375 22.9423 4.4375 22.5612L4.4375 1.43878C4.4375 1.05765 4.13042 0.75 3.75 0.75H2.375C1.99458 0.75 1.6875 1.05765 1.6875 1.43878Z" fill="#303030"/>
<path d="M5.8125 14.2958V19.3469C5.8125 19.728 6.11958 20.0356 6.5 20.0356H21.625C22.0054 20.0356 22.3125 19.728 22.3125 19.3469V14.2958C22.3125 13.9147 22.0054 13.6071 21.625 13.6071H6.5C6.11958 13.6071 5.8125 13.9147 5.8125 14.2958Z" fill="#303030"/>
<path d="M5.8125 4.65327V9.70429C5.8125 10.0854 6.11958 10.3931 6.5 10.3931H17.0417C17.4221 10.3931 17.7292 10.0854 17.7292 9.70429V4.65327C17.7292 4.27215 17.4221 3.9645 17.0417 3.9645L6.5 3.9645C6.11958 3.9645 5.8125 4.27215 5.8125 4.65327Z" fill="#303030"/>
</svg>
