<svg width="24" height="24" viewBox="0 0 24 24" fill="none" xmlns="http://www.w3.org/2000/svg">
<path d="M22.4977 6.74764H17.2524V1.50235C17.2524 1.08749 16.9148 0.75 16.5 0.75H1.50235C1.08753 0.75 0.75 1.08749 0.75 1.50235V16.5C0.75 16.9148 1.08753 17.2523 1.50235 17.2523H6.74768V22.4977C6.74768 22.9125 7.08516 23.25 7.50003 23.25H22.4977C22.9125 23.25 23.25 22.9125 23.25 22.4977V7.49999C23.25 7.08516 22.9125 6.74764 22.4977 6.74764ZM6.74768 7.49999V15.7476H2.24766V2.24766H15.7477V6.74763H7.50003C7.08516 6.74763 6.74768 7.08516 6.74768 7.49999ZM21.7523 21.7523H8.25237V17.2523H16.5C16.9148 17.2523 17.2524 16.9148 17.2524 16.5V8.25233H21.7523V21.7523Z" fill="#303030"/>
</svg>
