<svg width="24" height="24" viewBox="0 0 24 24" fill="none" xmlns="http://www.w3.org/2000/svg">
<path d="M8.56808 20.8934C9.42882 21 10.5211 21 12 21C13.4789 21 14.5712 21 15.4319 20.8934M8.56808 20.8934C7.78279 20.7962 7.19021 20.6103 6.67249 20.2548C6.58543 20.195 6.50055 20.132 6.41802 20.0658C5.38918 19.2413 4.95219 17.8668 4.07822 15.1179C3.20426 12.3689 2.76727 10.9944 3.12543 9.70933C3.15417 9.60624 3.18659 9.50427 3.22263 9.40361C3.67196 8.14881 4.816 7.29933 7.10407 5.60037C9.39215 3.90141 10.5362 3.05193 11.8427 3.00295C11.9475 2.99902 12.0525 2.99902 12.1573 3.00295C13.4638 3.05193 14.6079 3.90141 16.8959 5.60037C19.184 7.29933 20.328 8.14881 20.7774 9.40361C20.8134 9.50427 20.8458 9.60624 20.8746 9.70933C21.2327 10.9944 20.7957 12.3689 19.9218 15.1179C19.0478 17.8668 18.6108 19.2413 17.582 20.0658C17.4994 20.132 17.4146 20.195 17.3275 20.2548C16.8098 20.6103 16.2172 20.7962 15.4319 20.8934M8.56808 20.8934V20.8174V17.7484C8.56808 15.8113 10.1046 14.241 12 14.241C13.8954 14.241 15.4319 15.8113 15.4319 17.7484V20.8174V20.8934" stroke="white" stroke-width="1.5"/>
</svg>
