<svg width="24" height="24" viewBox="0 0 24 24" fill="none" xmlns="http://www.w3.org/2000/svg">
<g clip-path="url(#clip0_4871_1579)">
<path d="M10.0002 20.75C8.53668 20.7513 7.09625 20.3856 5.8107 19.6862C4.52515 18.9868 3.43555 17.9762 2.64163 16.7468C1.84772 15.5174 1.37484 14.1085 1.26629 12.649C1.15774 11.1896 1.41698 9.72621 2.02029 8.39288C2.6236 7.05955 3.55169 5.89883 4.71963 5.01698C5.88757 4.13512 7.25805 3.56029 8.70561 3.34511C10.1532 3.12992 11.6316 3.28125 13.0055 3.78525C14.3795 4.28925 15.6051 5.12981 16.5702 6.23C16.698 6.38207 16.7613 6.57818 16.7463 6.77631C16.7314 6.97444 16.6394 7.15884 16.4902 7.29C16.4154 7.35455 16.3286 7.4037 16.2348 7.43463C16.141 7.46556 16.042 7.47766 15.9435 7.47022C15.845 7.46279 15.749 7.43597 15.6609 7.39132C15.5728 7.34666 15.4944 7.28504 15.4302 7.21C14.6334 6.29133 13.6184 5.58783 12.4785 5.16424C11.3387 4.74064 10.1106 4.61056 8.90725 4.78598C7.70394 4.96139 6.56408 5.43665 5.59258 6.16803C4.62107 6.8994 3.84914 7.8634 3.34782 8.97128C2.8465 10.0792 2.6319 11.2954 2.72378 12.5079C2.81565 13.7205 3.21105 14.8904 3.87357 15.9101C4.5361 16.9298 5.44446 17.7665 6.51508 18.3432C7.58569 18.9198 8.78415 19.2179 10.0002 19.21C11.0285 19.2121 12.0454 18.9936 12.9821 18.5693C13.9188 18.1449 14.7536 17.5245 15.4302 16.75C15.4944 16.675 15.5728 16.6133 15.6609 16.5687C15.749 16.524 15.845 16.4972 15.9435 16.4898C16.042 16.4823 16.141 16.4944 16.2348 16.5254C16.3286 16.5563 16.4154 16.6054 16.4902 16.67C16.6394 16.8012 16.7314 16.9856 16.7463 17.1837C16.7613 17.3818 16.698 17.5779 16.5702 17.73C15.7552 18.6745 14.7468 19.433 13.6133 19.954C12.4799 20.475 11.2477 20.7465 10.0002 20.75ZM19.0002 15.75C18.9016 15.7505 18.804 15.7312 18.713 15.6935C18.6219 15.6557 18.5394 15.6001 18.4701 15.53C18.3297 15.3894 18.2508 15.1987 18.2508 15C18.2508 14.8012 18.3297 14.6106 18.4701 14.47L20.9402 12L18.4701 9.53C18.3377 9.38782 18.2655 9.19978 18.269 9.00548C18.2724 8.81118 18.3511 8.62579 18.4885 8.48838C18.6259 8.35096 18.8113 8.27225 19.0056 8.26882C19.1999 8.2654 19.388 8.33752 19.5302 8.47L22.5302 11.47C22.6706 11.6106 22.7495 11.8012 22.7495 12C22.7495 12.1987 22.6706 12.3894 22.5302 12.53L19.5302 15.53C19.4609 15.6001 19.3784 15.6557 19.2873 15.6935C19.1963 15.7312 19.0987 15.7505 19.0002 15.75Z" fill="#D25555"/>
<path d="M22 12.75H11C10.8011 12.75 10.6103 12.671 10.4697 12.5303C10.329 12.3897 10.25 12.1989 10.25 12C10.25 11.8011 10.329 11.6103 10.4697 11.4697C10.6103 11.329 10.8011 11.25 11 11.25H22C22.1989 11.25 22.3897 11.329 22.5303 11.4697C22.671 11.6103 22.75 11.8011 22.75 12C22.75 12.1989 22.671 12.3897 22.5303 12.5303C22.3897 12.671 22.1989 12.75 22 12.75Z" fill="#D25555"/>
</g>
<defs>
<clipPath id="clip0_4871_1579">
<rect width="24" height="24" fill="white"/>
</clipPath>
</defs>
</svg>
