<svg width="24" height="24" viewBox="0 0 24 24" fill="none" xmlns="http://www.w3.org/2000/svg">
<g opacity="0.6">
<path d="M19.4186 10.6312H18.6715V9.05047C18.6715 8.90134 18.6084 8.7592 18.4977 8.65922C18.3871 8.55923 18.2392 8.51082 18.0909 8.52584C18.007 8.53434 16.1262 8.74704 15.1898 10.6312H13.3688V4.5814C13.3688 3.70942 12.6594 3 11.7874 3H4.5814C3.70942 3 3 3.70942 3 4.5814V11.7875C3 12.6594 3.70942 13.3688 4.58136 13.3688H5.3285V14.9496C5.3285 15.0987 5.39164 15.2408 5.50228 15.3408C5.59966 15.4288 5.7258 15.4769 5.85581 15.4769C5.8735 15.4769 5.89132 15.476 5.90907 15.4742C5.99303 15.4657 7.87382 15.253 8.8102 13.3688H10.6312V19.4186C10.6312 20.2906 11.3406 21 12.2125 21H19.4186C20.2906 21 21 20.2906 21 19.4187V12.2126C21 11.3406 20.2906 10.6312 19.4186 10.6312ZM8.46813 12.3141C8.25178 12.3141 8.05737 12.4463 7.97777 12.6475C7.59411 13.617 6.88737 14.0631 6.38323 14.2648V12.8415C6.38323 12.5503 6.14712 12.3141 5.85588 12.3141H4.5814C4.29097 12.3141 4.05472 12.0779 4.05472 11.7875V4.5814C4.05469 4.29098 4.29097 4.05469 4.5814 4.05469H11.7874C12.0779 4.05469 12.3141 4.29098 12.3141 4.58137V11.7874C12.3141 12.0779 12.0778 12.3141 11.7874 12.3141H8.46813V12.3141ZM19.9453 19.4187C19.9453 19.7091 19.709 19.9453 19.4186 19.9453H12.2126C11.9221 19.9453 11.6859 19.7091 11.6859 19.4187V13.3688H11.7874C12.6594 13.3688 13.3688 12.6594 13.3688 11.7875V11.6859H15.5319C15.7482 11.6859 15.9426 11.5537 16.0222 11.3526C16.4059 10.383 17.1126 9.93697 17.6168 9.73528V11.1586C17.6168 11.4498 17.8529 11.6859 18.1441 11.6859H19.4186C19.709 11.6859 19.9453 11.9222 19.9453 12.2126V19.4187H19.9453Z" fill="#2E2B30"/>
<path d="M10.5026 10.0028C10.4963 10.0028 9.88113 9.99385 9.26918 9.67934C9.61932 9.23088 9.89528 8.62237 9.97501 7.79774H10.5005C10.7758 7.79774 10.999 7.57451 10.999 7.29915C10.999 7.0238 10.7758 6.80057 10.5005 6.80057H8.99804V6.49859C8.99804 6.22323 8.77485 6 8.49955 6C8.22425 6 8.00106 6.22323 8.00106 6.49859V6.80057H6.49852C6.22322 6.80057 6.00003 7.0238 6.00003 7.29915C6.00003 7.57451 6.22322 7.79774 6.49852 7.79774H7.02406C7.10382 8.62237 7.37975 9.23088 7.72989 9.67934C7.11794 9.99385 6.50287 10.0028 6.49849 10.0028C6.22319 10.0028 6 10.2261 6 10.5014C6 10.7768 6.22319 11 6.49849 11C6.53421 11 7.38327 10.9948 8.23382 10.5411C8.32103 10.4945 8.41009 10.442 8.49949 10.3835C8.58891 10.442 8.67794 10.4946 8.76515 10.5411C9.6157 10.9948 10.4648 11 10.5005 11C10.7758 11 11 10.7768 11 10.5014C11 10.2261 10.7779 10.0028 10.5026 10.0028ZM8.49955 9.04168C8.24695 8.70703 8.0889 8.29171 8.02718 7.79774H8.97189C8.91021 8.29171 8.75212 8.70703 8.49955 9.04168Z" fill="#2E2B30"/>
<path d="M15.946 13.2756C15.8615 13.1067 15.6889 13 15.5 13C15.3112 13 15.1386 13.1067 15.0541 13.2756L13.0527 17.2783C12.9296 17.5246 13.0294 17.824 13.2757 17.9472C13.3473 17.983 13.4233 18 13.4983 18C13.6811 18 13.8572 17.899 13.9446 17.7243L14.3071 16.9992H16.6929L17.0554 17.7243C17.1785 17.9706 17.478 18.0704 17.7243 17.9472C17.9706 17.8241 18.0704 17.5246 17.9472 17.2783L15.946 13.2756ZM14.8057 16.002L15.5 14.6134L16.1943 16.002H14.8057Z" fill="#2E2B30"/>
<path d="M16.1466 5.85222C16.244 5.94957 16.3715 5.99826 16.4991 5.99826C16.6267 5.99826 16.7543 5.9496 16.8516 5.85222C17.0463 5.65753 17.0463 5.34189 16.8516 5.1472L16.7085 5.00409C18.5434 5.1128 20.0029 6.63976 20.0029 8.50147C20.0029 8.77679 20.2261 9 20.5015 9C20.7768 9 21 8.77679 21 8.50147C21 6.08616 19.0875 4.1094 16.6974 4.0052L16.8516 3.85103C17.0463 3.65633 17.0463 3.3407 16.8516 3.14601C16.6569 2.95135 16.3413 2.95131 16.1466 3.14601L15.146 4.14662C14.9513 4.34131 14.9513 4.65695 15.146 4.85164L16.1466 5.85222Z" fill="#2E2B30"/>
<path d="M7.85343 18.1478C7.65877 17.9531 7.3431 17.9531 7.14841 18.1478C6.95371 18.3425 6.95371 18.6581 7.14841 18.8528L7.29152 18.9959C5.45663 18.8872 3.99706 17.3602 3.99706 15.4985C3.99706 15.2232 3.77385 15 3.49853 15C3.22321 15 3 15.2232 3 15.4985C3 17.9138 4.91246 19.8906 7.30259 19.9948L7.14841 20.149C6.95371 20.3437 6.95371 20.6593 7.14841 20.854C7.24575 20.9513 7.37334 21 7.5009 21C7.62846 21 7.75608 20.9513 7.8534 20.854L8.85398 19.8534C9.04867 19.6587 9.04867 19.3431 8.85398 19.1484L7.85343 18.1478Z" fill="#2E2B30"/>
</g>
</svg>
