<svg width="512" height="512" viewBox="0 0 512 512" fill="none" xmlns="http://www.w3.org/2000/svg">
<g clip-path="url(#clip0_2_2)">
<path d="M195.708 268.059L165.708 118.058C165.028 114.658 163.191 111.598 160.51 109.4C157.828 107.201 154.468 106 151 106H121C117.532 106 114.172 107.201 111.49 109.4C108.809 111.598 106.972 114.658 106.292 118.058L76.292 268.058C74.667 276.182 79.936 284.084 88.059 285.708C96.182 287.333 104.085 282.064 105.709 273.941L115.297 226H156.703L166.291 273.942C167.916 282.069 175.822 287.334 183.941 285.709C192.064 284.084 197.333 276.182 195.708 268.059ZM121.297 196L133.297 136H138.703L150.703 196H121.297ZM436 226H391V211C391 202.716 384.284 196 376 196C367.716 196 361 202.716 361 211V226H316C307.716 226 301 232.716 301 241C301 249.284 307.716 256 316 256H319.63C328.177 283.612 341.045 304.806 355.205 321.79C343.68 332.332 332.018 340.977 321.63 349.287C315.161 354.462 314.112 363.901 319.288 370.37C324.466 376.842 333.906 377.885 340.371 372.712C350.817 364.355 363.338 355.068 376 343.448C388.671 355.076 401.215 364.38 411.629 372.712C418.098 377.888 427.538 376.838 432.712 370.37C437.887 363.901 436.838 354.461 430.37 349.287C420.009 340.996 408.332 332.342 396.795 321.79C410.955 304.806 423.823 283.612 432.37 256H436C444.284 256 451 249.284 451 241C451 232.716 444.284 226 436 226ZM376 299.745C366.425 287.725 357.811 273.378 351.317 255.9H400.682C394.189 273.378 385.575 287.725 376 299.745Z" fill="black"/>
<path d="M467 91H250.599L244.169 39.418C241.36 16.946 222.164 0 199.517 0H45C20.187 0 0 20.187 0 45V376C0 400.813 20.187 421 45 421H171.483L177.831 472.582C180.635 495.009 199.831 512 222.484 512H467C491.813 512 512 491.813 512 467V136C512 111.187 491.813 91 467 91ZM45 391C36.729 391 30 384.271 30 376V45C30 36.729 36.729 30 45 30H199.517C207.066 30 213.465 35.648 214.4 43.134L257.764 391H45ZM206.724 461.75L201.709 421H241.953L206.724 461.75ZM482 467C482 475.271 475.271 482 467 482H228.874L285.978 415.947C287.417 414.325 288.487 412.41 289.114 410.334C289.74 408.258 289.909 406.07 289.607 403.923L254.339 121H467C475.271 121 482 127.729 482 136V467Z" fill="black"/>
</g>
<defs>
<clipPath id="clip0_2_2">
<rect width="512" height="512" fill="white"/>
</clipPath>
</defs>
</svg>
