<svg width="30" height="30" viewBox="0 0 30 30" fill="none" xmlns="http://www.w3.org/2000/svg">
<path d="M28.6875 12.7969L2.4375 1.50007C2.20312 1.40632 1.92188 1.54694 1.82812 1.78132C1.78125 1.87507 1.78125 2.01569 1.82812 2.10944L11.4844 29.0157C11.5312 29.2032 11.7187 29.3438 11.9062 29.3438C12.0937 29.3438 12.2812 29.2032 12.3281 29.0157L16.4062 17.0626L28.5938 13.7344C28.8281 13.6876 28.9688 13.4063 28.9219 13.1719C28.9219 12.9844 28.8281 12.8438 28.6875 12.7969ZM15.9375 16.1719C15.7969 16.2188 15.6562 16.3126 15.6094 16.4532L11.9062 27.3751L3.04688 2.81257L27.0938 13.1251L15.9375 16.1719Z" fill="#303030"/>
</svg>
