<svg width="24" height="24" viewBox="0 0 24 24" fill="none" xmlns="http://www.w3.org/2000/svg">
<path d="M8.52148 15.7426C8.80747 15.5495 9.08696 15.3812 9.33991 15.1862C10.3988 14.3724 11.0986 13.3356 11.7129 12.2509C11.9734 11.7896 12.2004 11.3134 12.4322 10.8404C12.9738 9.73696 13.886 9.23728 15.2839 9.32071C16.1403 9.37228 16.9403 9.58275 17.6672 10.0046C19.6285 11.147 19.7997 13.3946 18.0203 14.7352C16.9371 15.5527 15.6414 15.9835 14.277 16.2821C13.1775 16.5226 12.0617 16.6459 10.9291 16.4757C10.082 16.3477 9.26408 16.1537 8.52148 15.7426Z" fill="#303030"/>
<path d="M23.2503 2.85938V3.10781C23.2503 4.89625 23.2488 6.68453 23.2459 8.47266C23.2472 8.57901 23.2128 8.68339 23.1468 8.77313C22.4091 9.67875 21.6627 10.5788 20.9174 11.4797C20.8833 11.5153 20.847 11.5495 20.8091 11.5823C19.9305 10.0786 18.6609 8.93484 16.8691 8.18484L23.2503 2.85938Z" fill="#303030"/>
<path d="M9.50193 5.8042H10.2386C10.2386 6.10936 10.2575 6.41357 10.2353 6.71076C10.0615 9.06014 9.29448 11.2679 8.13806 13.3881C7.2346 15.0419 5.99639 16.4936 4.61194 17.8572C3.5579 18.8954 2.46702 19.9061 1.39456 20.9298C1.3367 20.9899 1.28247 21.0524 1.23207 21.1173L0.75 20.6926C1.1779 20.2965 1.62313 19.8887 2.06295 19.4767C3.56927 18.0644 5.04201 16.6276 6.30838 15.0437C6.50771 14.7948 6.67128 14.5239 6.85003 14.2623C7.06669 13.9426 7.05477 13.614 6.91882 13.2719C6.68374 12.6803 6.29105 12.1675 5.86694 11.6715C4.42182 9.98404 2.71672 8.49951 0.948785 7.06748C0.890828 7.02061 0.833955 6.97373 0.763 6.9142L1.19632 6.48201C1.39131 6.63014 1.58359 6.76701 1.76396 6.91514C3.3537 8.22436 4.90551 9.5631 6.22388 11.0903C6.4957 11.4018 6.7488 11.7252 6.98219 12.0592C7.20751 12.3873 7.39167 12.7337 7.60237 13.0858C8.2008 11.9516 8.67045 10.7698 9.0047 9.55701C9.35207 8.32914 9.51913 7.06825 9.50193 5.8042ZM7.73562 13.9178C9.2349 11.3622 10.1638 8.73576 10.173 5.88717H9.60538C9.60051 5.98607 9.60051 6.07092 9.59076 6.15482C9.49326 6.99107 9.44235 7.83436 9.28527 8.66264C8.99603 10.1898 8.41864 11.6467 7.70529 13.0642C7.66255 13.1549 7.64403 13.2528 7.65112 13.3506C7.6625 13.5208 7.69987 13.6895 7.73562 13.9178Z" fill="#303030"/>
</svg>
