<svg width="24" height="24" viewBox="0 0 24 24" fill="none" xmlns="http://www.w3.org/2000/svg">
<path d="M22.9492 10.2375L1.94922 1.20001C1.76172 1.12501 1.53672 1.23751 1.46172 1.42501C1.42422 1.50001 1.42422 1.61251 1.46172 1.68751L9.18672 23.2125C9.22422 23.3625 9.37422 23.475 9.52422 23.475C9.67422 23.475 9.82422 23.3625 9.86172 23.2125L13.1242 13.65L22.8742 10.9875C23.0617 10.95 23.1742 10.725 23.1367 10.5375C23.1367 10.3875 23.0617 10.275 22.9492 10.2375ZM12.7492 12.9375C12.6367 12.975 12.5242 13.05 12.4867 13.1625L9.52422 21.9L2.43672 2.25001L21.6742 10.5L12.7492 12.9375Z" fill="#303030"/>
</svg>
