<svg width="24" height="24" viewBox="0 0 24 24" fill="none" xmlns="http://www.w3.org/2000/svg">
<path d="M21.5455 9.81816H20.9936C20.9479 8.02027 20.3614 6.27788 19.3105 4.81836C18.2597 3.35883 16.7933 2.24993 15.1027 1.63634H19.6751C19.7415 1.89343 19.8993 2.11749 20.1191 2.26651C20.3389 2.41553 20.6054 2.47929 20.8688 2.44583C21.1322 2.41237 21.3744 2.284 21.5499 2.08477C21.7254 1.88554 21.8223 1.62914 21.8223 1.36362C21.8223 1.0981 21.7254 0.841691 21.5499 0.642463C21.3744 0.443234 21.1322 0.314859 20.8688 0.281403C20.6054 0.247946 20.3389 0.311704 20.1191 0.460725C19.8993 0.609747 19.7415 0.833801 19.6751 1.09089H13.0909V0.545435C13.0909 0.473103 13.0622 0.403734 13.011 0.352588C12.9599 0.301441 12.8905 0.272708 12.8182 0.272708H11.1818C11.1095 0.272708 11.0401 0.301441 10.989 0.352588C10.9378 0.403734 10.9091 0.473103 10.9091 0.545435V1.09089H4.32491C4.25853 0.833801 4.10067 0.609747 3.88091 0.460725C3.66115 0.311704 3.39459 0.247946 3.13118 0.281403C2.86778 0.314859 2.62562 0.443234 2.4501 0.642463C2.27457 0.841691 2.17773 1.0981 2.17773 1.36362C2.17773 1.62914 2.27457 1.88554 2.4501 2.08477C2.62562 2.284 2.86778 2.41237 3.13118 2.44583C3.39459 2.47929 3.66115 2.41553 3.88091 2.26651C4.10067 2.11749 4.25853 1.89343 4.32491 1.63634H8.89724C7.20667 2.24993 5.74029 3.35883 4.68943 4.81836C3.63857 6.27788 3.05203 8.02027 3.00633 9.81816H2.45455C2.38222 9.81816 2.31285 9.8469 2.2617 9.89804C2.21055 9.94919 2.18182 10.0186 2.18182 10.0909V11.7273C2.18182 11.7996 2.21055 11.869 2.2617 11.9201C2.31285 11.9712 2.38222 12 2.45455 12H4.09091C4.16324 12 4.23261 11.9712 4.28376 11.9201C4.33491 11.869 4.36364 11.7996 4.36364 11.7273V10.0909C4.36364 10.0186 4.33491 9.94919 4.28376 9.89804C4.23261 9.8469 4.16324 9.81816 4.09091 9.81816H3.55184C3.60657 7.81018 4.3787 5.88821 5.72836 4.40045C7.07801 2.9127 8.91592 1.95757 10.9091 1.7081V2.1818C10.9091 2.25413 10.9378 2.3235 10.989 2.37465C11.0401 2.42579 11.1095 2.45453 11.1818 2.45453H12.8182C12.8905 2.45453 12.9599 2.42579 13.011 2.37465C13.0622 2.3235 13.0909 2.25413 13.0909 2.1818V1.7081C15.0841 1.95757 16.922 2.9127 18.2716 4.40045C19.6213 5.88821 20.3934 7.81018 20.4482 9.81816H19.9091C19.8368 9.81816 19.7674 9.8469 19.7162 9.89804C19.6651 9.94919 19.6364 10.0186 19.6364 10.0909V11.7273C19.6364 11.7996 19.6651 11.869 19.7162 11.9201C19.7674 11.9712 19.8368 12 19.9091 12H21.5455C21.6178 12 21.6872 11.9712 21.7383 11.9201C21.7895 11.869 21.8182 11.7996 21.8182 11.7273V10.0909C21.8182 10.0186 21.7895 9.94919 21.7383 9.89804C21.6872 9.8469 21.6178 9.81816 21.5455 9.81816Z" fill="#303030"/>
<path d="M12.7894 3.69621C12.7619 3.64125 12.7167 3.59717 12.6611 3.57112C12.6054 3.54508 12.5426 3.53859 12.4828 3.55271C12.423 3.56683 12.3697 3.60073 12.3316 3.64892C12.2935 3.6971 12.2727 3.75675 12.2727 3.8182V12.6573C12.2727 12.7101 12.2881 12.7617 12.3169 12.806C12.3457 12.8502 12.3867 12.8852 12.4349 12.9066C12.6649 13.0065 12.8534 13.1827 12.9687 13.4054C13.084 13.628 13.1191 13.8836 13.0681 14.1291C13.017 14.3746 12.8829 14.5951 12.6884 14.7533C12.4939 14.9115 12.2508 14.9979 12 14.9979C11.7492 14.9979 11.5061 14.9115 11.3116 14.7533C11.1171 14.5951 10.983 14.3746 10.9319 14.1291C10.8809 13.8836 10.916 13.628 11.0313 13.4054C11.1466 13.1827 11.3351 13.0065 11.5651 12.9066C11.6133 12.8852 11.6544 12.8502 11.6831 12.806C11.7119 12.7617 11.7273 12.7101 11.7273 12.6573V3.8182C11.7273 3.75675 11.7066 3.6971 11.6684 3.64892C11.6303 3.60073 11.577 3.56683 11.5172 3.55271C11.4574 3.53859 11.3946 3.54508 11.3389 3.57112C11.2833 3.59717 11.2381 3.64125 11.2106 3.69621L6.02878 14.0598C6.00985 14.0977 6 14.1395 6 14.1818C6 14.2242 6.00985 14.2659 6.02878 14.3038L8.01322 18.2727H15.9868L17.9712 14.3038C17.9902 14.2659 18 14.2242 18 14.1818C18 14.1395 17.9902 14.0977 17.9712 14.0598L12.7894 3.69621Z" fill="#303030"/>
<path d="M16.6353 18.8181H7.36257C7.21195 18.8181 7.08984 18.9402 7.08984 19.0908V20.7272C7.08984 20.8778 7.21195 20.9999 7.36257 20.9999H16.6353C16.7859 20.9999 16.908 20.8778 16.908 20.7272V19.0908C16.908 18.9402 16.7859 18.8181 16.6353 18.8181Z" fill="#303030"/>
<path d="M7.91016 23.4545C7.91016 23.5268 7.93889 23.5962 7.99004 23.6473C8.04118 23.6985 8.11055 23.7272 8.18288 23.7272H15.8192C15.8916 23.7272 15.9609 23.6985 16.0121 23.6473C16.0632 23.5962 16.092 23.5268 16.092 23.4545V21.5454H7.91016V23.4545Z" fill="#303030"/>
</svg>
