<svg width="24" height="24" viewBox="0 0 24 24" fill="none" xmlns="http://www.w3.org/2000/svg">
<path d="M18.7222 15.9904L18.0647 15.6296L18.7222 15.9904ZM5.93784 15.9904L5.28032 16.3512L5.93784 15.9904ZM4.00246 8.76092L3.25341 8.79874L4.00246 8.76092ZM17.206 18.1055L17.7731 18.5963L17.206 18.1055ZM7.45401 18.1055L8.0211 17.6146L7.45401 18.1055ZM20.6651 8.23039L21.4146 8.2591L20.6651 8.23039ZM11.5799 15.9904C11.5799 16.4046 11.9157 16.7404 12.3299 16.7404C12.7441 16.7404 13.0799 16.4046 13.0799 15.9904H11.5799ZM19.9157 8.20168C19.8424 10.114 19.4694 13.0695 18.0647 15.6296L19.3797 16.3512C20.9475 13.494 21.3376 10.2678 21.4146 8.2591L19.9157 8.20168ZM18.0647 15.6296C17.7062 16.2828 17.2091 16.9559 16.6389 17.6146L17.7731 18.5963C18.3859 17.8883 18.9539 17.1272 19.3797 16.3512L18.0647 15.6296ZM8.0211 17.6146C7.45099 16.9559 6.95381 16.2828 6.59535 15.6296L5.28032 16.3512C5.70613 17.1272 6.27413 17.8883 6.88693 18.5963L8.0211 17.6146ZM6.59535 15.6296C5.22892 13.1394 4.83985 10.4732 4.7515 8.72311L3.25341 8.79874C3.34783 10.6691 3.76322 13.5864 5.28032 16.3512L6.59535 15.6296ZM5.99316 7.53886H6.27975V6.03886H5.99316V7.53886ZM18.1097 6.99759H18.6565V5.49759H18.1097V6.99759ZM15.7359 4.6238C15.7359 5.93481 16.7986 6.99759 18.1097 6.99759V5.49759C17.6271 5.49759 17.2359 5.10638 17.2359 4.6238H15.7359ZM6.27975 7.53886C7.74023 7.53886 8.92418 6.35491 8.92418 4.89443H7.42418C7.42418 5.52648 6.9118 6.03886 6.27975 6.03886V7.53886ZM10.0686 2.25C8.60813 2.25 7.42418 3.43395 7.42418 4.89443H8.92418C8.92418 4.26238 9.43656 3.75 10.0686 3.75V2.25ZM4.7515 8.72311C4.71958 8.09076 5.24014 7.53886 5.99316 7.53886V6.03886C4.50422 6.03886 3.1723 7.19199 3.25341 8.79874L4.7515 8.72311ZM16.6389 17.6146C15.7002 18.6992 15.0717 19.4189 14.431 19.8883C13.8397 20.3214 13.2364 20.5393 12.33 20.5393V22.0393C13.5439 22.0393 14.4601 21.7265 15.3174 21.0983C16.1254 20.5064 16.8747 19.6343 17.7731 18.5963L16.6389 17.6146ZM6.88693 18.5963C7.78533 19.6343 8.53464 20.5064 9.34259 21.0983C10.2 21.7265 11.1161 22.0393 12.33 22.0393V20.5393C11.4236 20.5393 10.8203 20.3214 10.2291 19.8883C9.58837 19.4189 8.95983 18.6992 8.0211 17.6146L6.88693 18.5963ZM14.8621 3.75C15.3446 3.75 15.7359 4.14121 15.7359 4.6238H17.2359C17.2359 3.31278 16.1731 2.25 14.8621 2.25V3.75ZM21.4146 8.2591C21.4758 6.66076 20.154 5.49759 18.6565 5.49759V6.99759C19.4068 6.99759 19.9405 7.55388 19.9157 8.20168L21.4146 8.2591ZM10.0686 3.75H14.8621V2.25H10.0686V3.75ZM11.5799 12.2788V15.9904H13.0799V12.2788H11.5799ZM9.72412 10.4231C9.72412 11.8622 10.8908 13.0288 12.3299 13.0288V11.5288C11.7192 11.5288 11.2241 11.0338 11.2241 10.4231H9.72412ZM12.3299 13.0288C13.769 13.0288 14.9357 11.8622 14.9357 10.4231H13.4357C13.4357 11.0338 12.9406 11.5288 12.3299 11.5288V13.0288ZM14.9357 10.4231C14.9357 8.98395 13.769 7.8173 12.3299 7.8173V9.3173C12.9406 9.3173 13.4357 9.81237 13.4357 10.4231H14.9357ZM12.3299 7.8173C10.8908 7.8173 9.72412 8.98395 9.72412 10.4231H11.2241C11.2241 9.81237 11.7192 9.3173 12.3299 9.3173V7.8173Z" fill="white"/>
</svg>
