<svg width="24" height="24" viewBox="0 0 24 24" fill="none" xmlns="http://www.w3.org/2000/svg">
<path d="M15.7174 1.5C14.5477 1.49981 13.398 1.80411 12.3815 2.38296C11.365 2.96181 10.5166 3.79529 9.91992 4.80141C10.7567 5.75277 11.2183 6.97641 11.2183 8.24344C11.2183 9.51047 10.7567 10.7341 9.91992 11.6855C10.3499 12.4082 10.9113 13.0442 11.5751 13.5605L11.2751 12.66C11.2119 12.4699 11.2029 12.2659 11.2491 12.0709C11.2954 11.8759 11.395 11.6977 11.537 11.5563C11.6789 11.4148 11.8574 11.3157 12.0525 11.27C12.2476 11.2244 12.4515 11.234 12.6415 11.2978L19.7299 13.6552C20.5782 13.0306 21.2679 12.2155 21.7434 11.2754C22.2189 10.3354 22.4669 9.29686 22.4674 8.24344C22.4674 4.52484 19.4393 1.5 15.7174 1.5ZM13.8424 8.61797H13.0924C12.993 8.61797 12.8976 8.57846 12.8273 8.50813C12.7569 8.43781 12.7174 8.34243 12.7174 8.24297C12.7174 8.14351 12.7569 8.04813 12.8273 7.9778C12.8976 7.90748 12.993 7.86797 13.0924 7.86797H13.8424C13.9419 7.86797 14.0373 7.90748 14.1076 7.9778C14.1779 8.04813 14.2174 8.14351 14.2174 8.24297C14.2174 8.34243 14.1779 8.43781 14.1076 8.50813C14.0373 8.57846 13.9419 8.61797 13.8424 8.61797ZM16.0924 8.61797H15.3424C15.243 8.61797 15.1476 8.57846 15.0773 8.50813C15.0069 8.43781 14.9674 8.34243 14.9674 8.24297C14.9674 8.14351 15.0069 8.04813 15.0773 7.9778C15.1476 7.90748 15.243 7.86797 15.3424 7.86797H16.0924C16.1919 7.86797 16.2873 7.90748 16.3576 7.9778C16.4279 8.04813 16.4674 8.14351 16.4674 8.24297C16.4674 8.34243 16.4279 8.43781 16.3576 8.50813C16.2873 8.57846 16.1919 8.61797 16.0924 8.61797ZM18.3424 8.61797H17.5924C17.493 8.61797 17.3976 8.57846 17.3273 8.50813C17.2569 8.43781 17.2174 8.34243 17.2174 8.24297C17.2174 8.14351 17.2569 8.04813 17.3273 7.9778C17.3976 7.90748 17.493 7.86797 17.5924 7.86797H18.3424C18.4419 7.86797 18.5373 7.90748 18.6076 7.9778C18.6779 8.04813 18.7174 8.14351 18.7174 8.24297C18.7174 8.34243 18.6779 8.43781 18.6076 8.50813C18.5373 8.57846 18.4419 8.61797 18.3424 8.61797Z" fill="#383838"/>
<path d="M22.2837 15.8942L18.3312 17.8672C18.1226 17.9711 17.9534 18.1401 17.8493 18.3486L15.8698 22.2983C15.8407 22.357 15.7948 22.4056 15.7379 22.438C15.681 22.4704 15.6157 22.485 15.5504 22.4799C15.4852 22.4749 15.4229 22.4504 15.3716 22.4097C15.3203 22.369 15.2824 22.3139 15.2627 22.2514L14.9932 21.4438L14.1752 18.9903L14.0871 18.7264L12.7488 14.7144L11.9843 12.4227C11.9645 12.3645 11.9614 12.3019 11.9754 12.2421C11.9894 12.1823 12.02 12.1276 12.0636 12.0842C12.1071 12.0409 12.162 12.0107 12.2219 11.997C12.2818 11.9833 12.3444 11.9867 12.4024 12.0069L19.4009 14.3352L22.2424 15.2806C22.3041 15.3022 22.3581 15.3413 22.3977 15.3933C22.4373 15.4453 22.4607 15.5077 22.4651 15.5729C22.4695 15.638 22.4547 15.7031 22.4224 15.7599C22.3901 15.8167 22.3419 15.8627 22.2837 15.8924V15.8942Z" fill="#383838"/>
<path d="M9.27609 5.19952C8.5666 4.43236 7.61146 3.93707 6.57565 3.79921C5.53983 3.66135 4.4884 3.88958 3.60295 4.44446C2.7175 4.99935 2.05365 5.84605 1.72605 6.83832C1.39846 7.83058 1.4277 8.90611 1.80872 9.87911C2.18974 10.8521 2.89862 11.6615 3.8129 12.1675C4.72719 12.6734 5.78948 12.8442 6.81627 12.6502C7.84306 12.4563 8.76988 11.9099 9.43665 11.1053C10.1034 10.3007 10.4682 9.28853 10.4681 8.24358C10.4677 7.11511 10.0421 6.02823 9.27609 5.19952ZM4.09313 8.61811H3.34313C3.24367 8.61811 3.14829 8.57861 3.07796 8.50828C3.00763 8.43795 2.96813 8.34257 2.96813 8.24311C2.96813 8.14366 3.00763 8.04828 3.07796 7.97795C3.14829 7.90762 3.24367 7.86811 3.34313 7.86811H4.09313C4.19258 7.86811 4.28796 7.90762 4.35829 7.97795C4.42862 8.04828 4.46813 8.14366 4.46813 8.24311C4.46813 8.34257 4.42862 8.43795 4.35829 8.50828C4.28796 8.57861 4.19258 8.61811 4.09313 8.61811ZM6.34313 8.61811H5.59313C5.49367 8.61811 5.39829 8.57861 5.32796 8.50828C5.25763 8.43795 5.21813 8.34257 5.21813 8.24311C5.21813 8.14366 5.25763 8.04828 5.32796 7.97795C5.39829 7.90762 5.49367 7.86811 5.59313 7.86811H6.34313C6.44258 7.86811 6.53796 7.90762 6.60829 7.97795C6.67862 8.04828 6.71813 8.14366 6.71813 8.24311C6.71813 8.34257 6.67862 8.43795 6.60829 8.50828C6.53796 8.57861 6.44258 8.61811 6.34313 8.61811ZM8.6025 8.61811H7.84313C7.74367 8.61811 7.64829 8.57861 7.57796 8.50828C7.50763 8.43795 7.46813 8.34257 7.46813 8.24311C7.46813 8.14366 7.50763 8.04828 7.57796 7.97795C7.64829 7.90762 7.74367 7.86811 7.84313 7.86811H8.6025C8.70196 7.86811 8.79734 7.90762 8.86767 7.97795C8.93799 8.04828 8.9775 8.14366 8.9775 8.24311C8.9775 8.34257 8.93799 8.43795 8.86767 8.50828C8.79734 8.57861 8.70196 8.61811 8.6025 8.61811Z" fill="#383838"/>
</svg>
